<svg xmlns="http://www.w3.org/2000/svg" xmlns:xlink="http://www.w3.org/1999/xlink" width="1080" zoomAndPan="magnify" viewBox="0 0 810 809.999993" height="1080" preserveAspectRatio="xMidYMid meet" version="1.0"><defs><g/></defs><path fill="#f4f0f6" d="M 202.597656 -0.0976562 C 90.769531 -0.0976562 0.0976562 90.570312 0.0976562 202.402344 L 0.0976562 607.402344 C 0.0976562 719.230469 90.769531 809.902344 202.597656 809.902344 L 607.597656 809.902344 C 719.429688 809.902344 810.097656 719.230469 810.097656 607.402344 L 810.097656 202.402344 C 810.097656 90.570312 719.429688 -0.0976562 607.597656 -0.0976562 Z M 202.597656 -0.0976562 " fill-opacity="1" fill-rule="nonzero"/><g fill="#976baa" fill-opacity="1"><g transform="translate(250.525623, 562.381288)"><g><path d="M 154.078125 -313.65625 C 183.878906 -313.65625 209.363281 -307.578125 230.53125 -295.421875 C 251.707031 -283.265625 267.78125 -265.488281 278.75 -242.09375 C 289.726562 -218.707031 295.21875 -190.414062 295.21875 -157.21875 C 295.21875 -123.757812 289.726562 -95.269531 278.75 -71.75 C 267.78125 -48.226562 251.707031 -30.390625 230.53125 -18.234375 C 209.363281 -6.078125 183.878906 0 154.078125 0 L 23.53125 0 L 23.53125 -313.65625 Z M 156.828125 -27.4375 C 178.785156 -27.4375 197.734375 -32.535156 213.671875 -42.734375 C 229.617188 -52.929688 241.835938 -67.765625 250.328125 -87.234375 C 258.828125 -106.703125 263.078125 -130.03125 263.078125 -157.21875 C 263.078125 -184.132812 258.828125 -207.265625 250.328125 -226.609375 C 241.835938 -245.953125 229.617188 -260.71875 213.671875 -270.90625 C 197.734375 -281.101562 178.785156 -286.203125 156.828125 -286.203125 L 54.890625 -286.203125 L 54.890625 -27.4375 Z M 156.4375 -264.25 C 182.832031 -264.25 203.148438 -255.097656 217.390625 -236.796875 C 231.640625 -218.503906 238.765625 -191.976562 238.765625 -157.21875 C 238.765625 -122.195312 231.640625 -95.472656 217.390625 -77.046875 C 203.148438 -58.617188 182.832031 -49.40625 156.4375 -49.40625 L 78.40625 -49.40625 L 78.40625 -264.25 Z M 148.984375 -76.84375 C 162.316406 -76.84375 173.164062 -79.519531 181.53125 -84.875 C 189.894531 -90.238281 196.164062 -98.800781 200.34375 -110.5625 C 204.519531 -122.320312 206.609375 -137.875 206.609375 -157.21875 C 206.609375 -185.1875 201.90625 -205.441406 192.5 -217.984375 C 183.09375 -230.535156 168.585938 -236.8125 148.984375 -236.8125 L 109.78125 -236.8125 L 109.78125 -76.84375 Z M 148.984375 -76.84375 "/></g></g></g></svg>